<svg xmlns="http://www.w3.org/2000/svg" width="512" height="512" viewBox="0 0 512 512">
  <defs>
    <linearGradient id="bg" x1="0" y1="0" x2="0.6" y2="1">
      <stop offset="0" stop-color="#0b1030"/><stop offset="0.55" stop-color="#05070f"/><stop offset="1" stop-color="#020309"/>
    </linearGradient>
    <linearGradient id="neon" x1="0" y1="0" x2="1" y2="1">
      <stop offset="0" stop-color="#57dcff"/><stop offset="1" stop-color="#a678ff"/>
    </linearGradient>
    <radialGradient id="ball" cx="36%" cy="28%">
      <stop offset="0" stop-color="#ffffff"/><stop offset="0.3" stop-color="#dbe5ff"/>
      <stop offset="0.68" stop-color="#7182ab"/><stop offset="1" stop-color="#141a30"/>
    </radialGradient>
    <radialGradient id="halo" cx="50%" cy="50%">
      <stop offset="0" stop-color="#57dcff" stop-opacity="0.55"/><stop offset="1" stop-color="#57dcff" stop-opacity="0"/>
    </radialGradient>
  </defs>
  <rect width="512" height="512" fill="url(#bg)"/>
  <circle cx="256.00" cy="201.93" r="189.24" fill="url(#halo)"/>
  <g>
    <rect x="71.27" y="334.40" width="46.86" height="106.33" rx="7.21" fill="#eef2ff"/>
    <rect x="123.54" y="326.29" width="46.86" height="114.44" rx="7.21" fill="#eef2ff"/>
    <rect x="175.80" y="318.18" width="46.86" height="122.55" rx="7.21" fill="#eef2ff"/>
    <rect x="228.07" y="310.07" width="46.86" height="130.66" rx="7.21" fill="#eef2ff"/>
    <rect x="280.33" y="318.18" width="46.86" height="122.55" rx="7.21" fill="#eef2ff"/>
    <rect x="332.60" y="326.29" width="46.86" height="114.44" rx="7.21" fill="#eef2ff"/>
    <rect x="384.86" y="334.40" width="46.86" height="106.33" rx="7.21" fill="#eef2ff"/>
    <rect x="109.12" y="328.09" width="28.84" height="76.60" rx="5.41" fill="#0a0e1e"/>
    <rect x="161.38" y="320.88" width="28.84" height="76.60" rx="5.41" fill="#0a0e1e"/>
    <rect x="265.91" y="313.67" width="28.84" height="76.60" rx="5.41" fill="#0a0e1e"/>
    <rect x="318.18" y="320.88" width="28.84" height="76.60" rx="5.41" fill="#0a0e1e"/>
    <rect x="370.44" y="328.09" width="28.84" height="76.60" rx="5.41" fill="#0a0e1e"/>
  </g>
  <rect x="71.27" y="303.31" width="369.46" height="9.91" rx="4.96" fill="url(#neon)"/>
  <circle cx="256.00" cy="192.92" r="69.84" fill="url(#ball)"/>
  <ellipse cx="233.47" cy="170.39" rx="22.53" ry="16.22" fill="#ffffff" opacity="0.92"/>
</svg>